<?xml version="1.0" encoding="UTF-8" standalone="no"?>
<!DOCTYPE svg PUBLIC "-//W3C//DTD SVG 1.1//EN"
 "http://www.w3.org/Graphics/SVG/1.1/DTD/svg11.dtd">
<!-- Generated by graphviz version 2.40.1 (20161225.0304)
 -->
<!-- Title: snakemake_dag Pages: 1 -->
<svg width="990pt" height="332pt"
 viewBox="0.00 0.00 989.50 332.00" xmlns="http://www.w3.org/2000/svg" xmlns:xlink="http://www.w3.org/1999/xlink">
<g id="graph0" class="graph" transform="scale(1 1) rotate(0) translate(4 328)">
<title>snakemake_dag</title>
<polygon fill="#ffffff" stroke="transparent" points="-4,4 -4,-328 985.5,-328 985.5,4 -4,4"/>
<!-- 0 -->
<g id="node1" class="node">
<title>0</title>
<path fill="none" stroke="#56c9d8" stroke-width="2" d="M393,-36C393,-36 363,-36 363,-36 357,-36 351,-30 351,-24 351,-24 351,-12 351,-12 351,-6 357,0 363,0 363,0 393,0 393,0 399,0 405,-6 405,-12 405,-12 405,-24 405,-24 405,-30 399,-36 393,-36"/>
<text text-anchor="middle" x="378" y="-15.5" font-family="sans" font-size="10.00" fill="#000000">all</text>
</g>
<!-- 1 -->
<g id="node2" class="node">
<title>1</title>
<path fill="none" stroke="#d85656" stroke-width="2" d="M110,-180C110,-180 12,-180 12,-180 6,-180 0,-174 0,-168 0,-168 0,-156 0,-156 0,-150 6,-144 12,-144 12,-144 110,-144 110,-144 116,-144 122,-150 122,-156 122,-156 122,-168 122,-168 122,-174 116,-180 110,-180"/>
<text text-anchor="middle" x="61" y="-159.5" font-family="sans" font-size="10.00" fill="#000000">translate_16genomes</text>
</g>
<!-- 1&#45;&gt;0 -->
<g id="edge1" class="edge">
<title>1&#45;&gt;0</title>
<path fill="none" stroke="#c0c0c0" stroke-width="2" d="M56.801,-143.9238C53.2703,-123.7112 51.2737,-91.2884 69,-72 105.001,-32.8265 266.0525,-21.9936 340.2941,-19.06"/>
<polygon fill="#c0c0c0" stroke="#c0c0c0" stroke-width="2" points="340.7278,-22.5465 350.5927,-18.682 340.471,-15.5512 340.7278,-22.5465"/>
</g>
<!-- 5 -->
<g id="node6" class="node">
<title>5</title>
<path fill="none" stroke="#567bd8" stroke-width="2" d="M174,-108C174,-108 90,-108 90,-108 84,-108 78,-102 78,-96 78,-96 78,-84 78,-84 78,-78 84,-72 90,-72 90,-72 174,-72 174,-72 180,-72 186,-78 186,-84 186,-84 186,-96 186,-96 186,-102 180,-108 174,-108"/>
<text text-anchor="middle" x="132" y="-87.5" font-family="sans" font-size="10.00" fill="#000000">blastp_16genomes</text>
</g>
<!-- 1&#45;&gt;5 -->
<g id="edge12" class="edge">
<title>1&#45;&gt;5</title>
<path fill="none" stroke="#c0c0c0" stroke-width="2" d="M78.9163,-143.8314C87.3442,-135.2848 97.541,-124.9443 106.736,-115.6198"/>
<polygon fill="#c0c0c0" stroke="#c0c0c0" stroke-width="2" points="109.3131,-117.9912 113.8425,-108.4133 104.3289,-113.0761 109.3131,-117.9912"/>
</g>
<!-- 2 -->
<g id="node3" class="node">
<title>2</title>
<path fill="none" stroke="#c6d856" stroke-width="2" d="M265.5,-180C265.5,-180 162.5,-180 162.5,-180 156.5,-180 150.5,-174 150.5,-168 150.5,-168 150.5,-156 150.5,-156 150.5,-150 156.5,-144 162.5,-144 162.5,-144 265.5,-144 265.5,-144 271.5,-144 277.5,-150 277.5,-156 277.5,-156 277.5,-168 277.5,-168 277.5,-174 271.5,-180 265.5,-180"/>
<text text-anchor="middle" x="214" y="-159.5" font-family="sans" font-size="10.00" fill="#000000">blastp_db_pangenome</text>
</g>
<!-- 2&#45;&gt;0 -->
<g id="edge4" class="edge">
<title>2&#45;&gt;0</title>
<path fill="none" stroke="#c0c0c0" stroke-width="2" d="M212.978,-143.897C212.8447,-123.9634 215.6968,-92.0832 233,-72 260.1341,-40.5064 307.449,-27.3559 340.6307,-21.88"/>
<polygon fill="#c0c0c0" stroke="#c0c0c0" stroke-width="2" points="341.4875,-25.2912 350.8639,-20.3583 340.4579,-18.3673 341.4875,-25.2912"/>
</g>
<!-- 2&#45;&gt;5 -->
<g id="edge13" class="edge">
<title>2&#45;&gt;5</title>
<path fill="none" stroke="#c0c0c0" stroke-width="2" d="M193.3079,-143.8314C183.3052,-135.0485 171.145,-124.3712 160.3001,-114.8489"/>
<polygon fill="#c0c0c0" stroke="#c0c0c0" stroke-width="2" points="162.5092,-112.1308 152.6854,-108.1628 157.8906,-117.3909 162.5092,-112.1308"/>
</g>
<!-- 3 -->
<g id="node4" class="node">
<title>3</title>
<path fill="none" stroke="#59d856" stroke-width="2" d="M329.5,-252C329.5,-252 206.5,-252 206.5,-252 200.5,-252 194.5,-246 194.5,-240 194.5,-240 194.5,-228 194.5,-228 194.5,-222 200.5,-216 206.5,-216 206.5,-216 329.5,-216 329.5,-216 335.5,-216 341.5,-222 341.5,-228 341.5,-228 341.5,-240 341.5,-240 341.5,-246 335.5,-252 329.5,-252"/>
<text text-anchor="middle" x="268" y="-231.5" font-family="sans" font-size="10.00" fill="#000000">translate_1011pangenome</text>
</g>
<!-- 3&#45;&gt;2 -->
<g id="edge10" class="edge">
<title>3&#45;&gt;2</title>
<path fill="none" stroke="#c0c0c0" stroke-width="2" d="M254.3735,-215.8314C248.154,-207.5386 240.6678,-197.557 233.84,-188.4533"/>
<polygon fill="#c0c0c0" stroke="#c0c0c0" stroke-width="2" points="236.61,-186.3133 227.81,-180.4133 231.01,-190.5133 236.61,-186.3133"/>
</g>
<!-- 4 -->
<g id="node5" class="node">
<title>4</title>
<path fill="none" stroke="#d87d56" stroke-width="2" d="M510,-324C510,-324 384,-324 384,-324 378,-324 372,-318 372,-312 372,-312 372,-300 372,-300 372,-294 378,-288 384,-288 384,-288 510,-288 510,-288 516,-288 522,-294 522,-300 522,-300 522,-312 522,-312 522,-318 516,-324 510,-324"/>
<text text-anchor="middle" x="447" y="-303.5" font-family="sans" font-size="10.00" fill="#000000">download_pangenome_orfs</text>
</g>
<!-- 4&#45;&gt;3 -->
<g id="edge11" class="edge">
<title>4&#45;&gt;3</title>
<path fill="none" stroke="#c0c0c0" stroke-width="2" d="M401.8307,-287.8314C377.6777,-278.1162 347.7622,-266.0831 322.3444,-255.8592"/>
<polygon fill="#c0c0c0" stroke="#c0c0c0" stroke-width="2" points="323.4282,-252.5227 312.8444,-252.038 320.8159,-259.017 323.4282,-252.5227"/>
</g>
<!-- 6 -->
<g id="node7" class="node">
<title>6</title>
<path fill="none" stroke="#d8c356" stroke-width="2" d="M429.5,-180C429.5,-180 326.5,-180 326.5,-180 320.5,-180 314.5,-174 314.5,-168 314.5,-168 314.5,-156 314.5,-156 314.5,-150 320.5,-144 326.5,-144 326.5,-144 429.5,-144 429.5,-144 435.5,-144 441.5,-150 441.5,-156 441.5,-156 441.5,-168 441.5,-168 441.5,-174 435.5,-180 429.5,-180"/>
<text text-anchor="middle" x="378" y="-159.5" font-family="sans" font-size="10.00" fill="#000000">blastn_db_pangenome</text>
</g>
<!-- 4&#45;&gt;6 -->
<g id="edge14" class="edge">
<title>4&#45;&gt;6</title>
<path fill="none" stroke="#c0c0c0" stroke-width="2" d="M438.2611,-287.7623C426.3366,-262.8764 404.8727,-218.0822 391.0412,-189.2165"/>
<polygon fill="#c0c0c0" stroke="#c0c0c0" stroke-width="2" points="394.1456,-187.5953 386.6679,-180.0896 387.8328,-190.6202 394.1456,-187.5953"/>
</g>
<!-- 10 -->
<g id="node11" class="node">
<title>10</title>
<path fill="none" stroke="#56d87b" stroke-width="2" d="M653.5,-108C653.5,-108 568.5,-108 568.5,-108 562.5,-108 556.5,-102 556.5,-96 556.5,-96 556.5,-84 556.5,-84 556.5,-78 562.5,-72 568.5,-72 568.5,-72 653.5,-72 653.5,-72 659.5,-72 665.5,-78 665.5,-84 665.5,-84 665.5,-96 665.5,-96 665.5,-102 659.5,-108 653.5,-108"/>
<text text-anchor="middle" x="611" y="-87.5" font-family="sans" font-size="10.00" fill="#000000">blastn_pangenome</text>
</g>
<!-- 4&#45;&gt;10 -->
<g id="edge17" class="edge">
<title>4&#45;&gt;10</title>
<path fill="none" stroke="#c0c0c0" stroke-width="2" d="M460.7005,-287.9555C489.7019,-249.7585 557.3944,-160.6025 591.1409,-116.1559"/>
<polygon fill="#c0c0c0" stroke="#c0c0c0" stroke-width="2" points="593.9636,-118.226 597.2232,-108.1451 588.3885,-113.9931 593.9636,-118.226"/>
</g>
<!-- 12 -->
<g id="node13" class="node">
<title>12</title>
<path fill="none" stroke="#78d856" stroke-width="2" d="M526,-108C526,-108 418,-108 418,-108 412,-108 406,-102 406,-96 406,-96 406,-84 406,-84 406,-78 412,-72 418,-72 418,-72 526,-72 526,-72 532,-72 538,-78 538,-84 538,-84 538,-96 538,-96 538,-102 532,-108 526,-108"/>
<text text-anchor="middle" x="472" y="-87.5" font-family="sans" font-size="10.00" fill="#000000">blastn_pangenome_self</text>
</g>
<!-- 4&#45;&gt;12 -->
<g id="edge19" class="edge">
<title>4&#45;&gt;12</title>
<path fill="none" stroke="#c0c0c0" stroke-width="2" d="M449.0885,-287.9555C453.4451,-250.3144 463.5293,-163.1867 468.7448,-118.1246"/>
<polygon fill="#c0c0c0" stroke="#c0c0c0" stroke-width="2" points="472.2268,-118.4812 469.8999,-108.1451 465.2733,-117.6763 472.2268,-118.4812"/>
</g>
<!-- 5&#45;&gt;0 -->
<g id="edge9" class="edge">
<title>5&#45;&gt;0</title>
<path fill="none" stroke="#c0c0c0" stroke-width="2" d="M186.2903,-74.1102C233.3477,-60.3372 300.1607,-40.7822 341.2088,-28.7682"/>
<polygon fill="#c0c0c0" stroke="#c0c0c0" stroke-width="2" points="342.1972,-32.1258 350.8114,-25.9576 340.2308,-25.4076 342.1972,-32.1258"/>
</g>
<!-- 6&#45;&gt;0 -->
<g id="edge3" class="edge">
<title>6&#45;&gt;0</title>
<path fill="none" stroke="#c0c0c0" stroke-width="2" d="M378,-143.7623C378,-119.201 378,-75.2474 378,-46.3541"/>
<polygon fill="#c0c0c0" stroke="#c0c0c0" stroke-width="2" points="381.5001,-46.0896 378,-36.0896 374.5001,-46.0897 381.5001,-46.0896"/>
</g>
<!-- 7 -->
<g id="node8" class="node">
<title>7</title>
<path fill="none" stroke="#9fd856" stroke-width="2" d="M338,-108C338,-108 254,-108 254,-108 248,-108 242,-102 242,-96 242,-96 242,-84 242,-84 242,-78 248,-72 254,-72 254,-72 338,-72 338,-72 344,-72 350,-78 350,-84 350,-84 350,-96 350,-96 350,-102 344,-108 338,-108"/>
<text text-anchor="middle" x="296" y="-87.5" font-family="sans" font-size="10.00" fill="#000000">blastn_16genomes</text>
</g>
<!-- 6&#45;&gt;7 -->
<g id="edge15" class="edge">
<title>6&#45;&gt;7</title>
<path fill="none" stroke="#c0c0c0" stroke-width="2" d="M357.3079,-143.8314C347.3052,-135.0485 335.145,-124.3712 324.3001,-114.8489"/>
<polygon fill="#c0c0c0" stroke="#c0c0c0" stroke-width="2" points="326.5092,-112.1308 316.6854,-108.1628 321.8906,-117.3909 326.5092,-112.1308"/>
</g>
<!-- 6&#45;&gt;12 -->
<g id="edge20" class="edge">
<title>6&#45;&gt;12</title>
<path fill="none" stroke="#c0c0c0" stroke-width="2" d="M401.7202,-143.8314C413.4094,-134.8779 427.6688,-123.9558 440.2809,-114.2955"/>
<polygon fill="#c0c0c0" stroke="#c0c0c0" stroke-width="2" points="442.4769,-117.0222 448.2874,-108.1628 438.2203,-111.4651 442.4769,-117.0222"/>
</g>
<!-- 7&#45;&gt;0 -->
<g id="edge5" class="edge">
<title>7&#45;&gt;0</title>
<path fill="none" stroke="#c0c0c0" stroke-width="2" d="M316.6921,-71.8314C326.6948,-63.0485 338.855,-52.3712 349.6999,-42.8489"/>
<polygon fill="#c0c0c0" stroke="#c0c0c0" stroke-width="2" points="352.1094,-45.3909 357.3146,-36.1628 347.4908,-40.1308 352.1094,-45.3909"/>
</g>
<!-- 8 -->
<g id="node9" class="node">
<title>8</title>
<path fill="none" stroke="#d8a456" stroke-width="2" d="M969.5,-108C969.5,-108 850.5,-108 850.5,-108 844.5,-108 838.5,-102 838.5,-96 838.5,-96 838.5,-84 838.5,-84 838.5,-78 844.5,-72 850.5,-72 850.5,-72 969.5,-72 969.5,-72 975.5,-72 981.5,-78 981.5,-84 981.5,-84 981.5,-96 981.5,-96 981.5,-102 975.5,-108 969.5,-108"/>
<text text-anchor="middle" x="910" y="-87.5" font-family="sans" font-size="10.00" fill="#000000">blastn_db_cat16genomes</text>
</g>
<!-- 8&#45;&gt;0 -->
<g id="edge2" class="edge">
<title>8&#45;&gt;0</title>
<path fill="none" stroke="#c0c0c0" stroke-width="2" d="M838.111,-73.4601C835.3766,-72.947 832.6658,-72.4579 830,-72 677.1273,-45.7411 492.981,-28.0056 415.3713,-21.1589"/>
<polygon fill="#c0c0c0" stroke="#c0c0c0" stroke-width="2" points="415.4083,-17.6489 405.1417,-20.2653 414.7991,-24.6223 415.4083,-17.6489"/>
</g>
<!-- 9 -->
<g id="node10" class="node">
<title>9</title>
<path fill="none" stroke="#56a2d8" stroke-width="2" d="M945.5,-180C945.5,-180 874.5,-180 874.5,-180 868.5,-180 862.5,-174 862.5,-168 862.5,-168 862.5,-156 862.5,-156 862.5,-150 868.5,-144 874.5,-144 874.5,-144 945.5,-144 945.5,-144 951.5,-144 957.5,-150 957.5,-156 957.5,-156 957.5,-168 957.5,-168 957.5,-174 951.5,-180 945.5,-180"/>
<text text-anchor="middle" x="910" y="-159.5" font-family="sans" font-size="10.00" fill="#000000">cat_16genomes</text>
</g>
<!-- 9&#45;&gt;8 -->
<g id="edge16" class="edge">
<title>9&#45;&gt;8</title>
<path fill="none" stroke="#c0c0c0" stroke-width="2" d="M910,-143.8314C910,-136.131 910,-126.9743 910,-118.4166"/>
<polygon fill="#c0c0c0" stroke="#c0c0c0" stroke-width="2" points="913.5001,-118.4132 910,-108.4133 906.5001,-118.4133 913.5001,-118.4132"/>
</g>
<!-- 10&#45;&gt;0 -->
<g id="edge7" class="edge">
<title>10&#45;&gt;0</title>
<path fill="none" stroke="#c0c0c0" stroke-width="2" d="M556.3719,-73.1192C512.7857,-59.6505 452.9223,-41.152 414.8441,-29.3853"/>
<polygon fill="#c0c0c0" stroke="#c0c0c0" stroke-width="2" points="415.7726,-26.009 405.185,-26.4005 413.7058,-32.6969 415.7726,-26.009"/>
</g>
<!-- 11 -->
<g id="node12" class="node">
<title>11</title>
<path fill="none" stroke="#56d8a2" stroke-width="2" d="M719.5,-180C719.5,-180 642.5,-180 642.5,-180 636.5,-180 630.5,-174 630.5,-168 630.5,-168 630.5,-156 630.5,-156 630.5,-150 636.5,-144 642.5,-144 642.5,-144 719.5,-144 719.5,-144 725.5,-144 731.5,-150 731.5,-156 731.5,-156 731.5,-168 731.5,-168 731.5,-174 725.5,-180 719.5,-180"/>
<text text-anchor="middle" x="681" y="-159.5" font-family="sans" font-size="10.00" fill="#000000">blastn_db_16orfs</text>
</g>
<!-- 11&#45;&gt;10 -->
<g id="edge18" class="edge">
<title>11&#45;&gt;10</title>
<path fill="none" stroke="#c0c0c0" stroke-width="2" d="M663.336,-143.8314C655.0268,-135.2848 644.9736,-124.9443 635.9082,-115.6198"/>
<polygon fill="#c0c0c0" stroke="#c0c0c0" stroke-width="2" points="638.3821,-113.1435 628.9018,-108.4133 633.3631,-118.023 638.3821,-113.1435"/>
</g>
<!-- 13 -->
<g id="node14" class="node">
<title>13</title>
<path fill="none" stroke="#56d8c9" stroke-width="2" d="M808.5,-108C808.5,-108 695.5,-108 695.5,-108 689.5,-108 683.5,-102 683.5,-96 683.5,-96 683.5,-84 683.5,-84 683.5,-78 689.5,-72 695.5,-72 695.5,-72 808.5,-72 808.5,-72 814.5,-72 820.5,-78 820.5,-84 820.5,-84 820.5,-96 820.5,-96 820.5,-102 814.5,-108 808.5,-108"/>
<text text-anchor="middle" x="752" y="-87.5" font-family="sans" font-size="10.00" fill="#000000">blastn_16strains_MSY25</text>
</g>
<!-- 11&#45;&gt;13 -->
<g id="edge21" class="edge">
<title>11&#45;&gt;13</title>
<path fill="none" stroke="#c0c0c0" stroke-width="2" d="M698.9163,-143.8314C707.3442,-135.2848 717.541,-124.9443 726.736,-115.6198"/>
<polygon fill="#c0c0c0" stroke="#c0c0c0" stroke-width="2" points="729.3131,-117.9912 733.8425,-108.4133 724.3289,-113.0761 729.3131,-117.9912"/>
</g>
<!-- 12&#45;&gt;0 -->
<g id="edge6" class="edge">
<title>12&#45;&gt;0</title>
<path fill="none" stroke="#c0c0c0" stroke-width="2" d="M448.2798,-71.8314C436.5906,-62.8779 422.3312,-51.9558 409.7191,-42.2955"/>
<polygon fill="#c0c0c0" stroke="#c0c0c0" stroke-width="2" points="411.7797,-39.4651 401.7126,-36.1628 407.5231,-45.0222 411.7797,-39.4651"/>
</g>
<!-- 13&#45;&gt;0 -->
<g id="edge8" class="edge">
<title>13&#45;&gt;0</title>
<path fill="none" stroke="#c0c0c0" stroke-width="2" d="M683.1906,-73.7357C680.4266,-73.1391 677.6883,-72.5583 675,-72 581.7684,-52.6397 471.271,-33.5598 414.9786,-24.1144"/>
<polygon fill="#c0c0c0" stroke="#c0c0c0" stroke-width="2" points="415.555,-20.6623 405.1147,-22.465 414.4005,-27.5665 415.555,-20.6623"/>
</g>
</g>
</svg>
