<?xml version="1.0" encoding="UTF-8" standalone="no"?>
<!DOCTYPE svg PUBLIC "-//W3C//DTD SVG 1.1//EN"
 "http://www.w3.org/Graphics/SVG/1.1/DTD/svg11.dtd">
<!-- Generated by graphviz version 2.40.1 (20161225.0304)
 -->
<!-- Title: snakemake_dag Pages: 1 -->
<svg width="491pt" height="332pt"
 viewBox="0.00 0.00 491.00 332.00" xmlns="http://www.w3.org/2000/svg" xmlns:xlink="http://www.w3.org/1999/xlink">
<g id="graph0" class="graph" transform="scale(1 1) rotate(0) translate(4 328)">
<title>snakemake_dag</title>
<polygon fill="#ffffff" stroke="transparent" points="-4,4 -4,-328 487,-328 487,4 -4,4"/>
<!-- 0 -->
<g id="node1" class="node">
<title>0</title>
<path fill="none" stroke="#afd856" stroke-width="2" d="M243.5,-36C243.5,-36 213.5,-36 213.5,-36 207.5,-36 201.5,-30 201.5,-24 201.5,-24 201.5,-12 201.5,-12 201.5,-6 207.5,0 213.5,0 213.5,0 243.5,0 243.5,0 249.5,0 255.5,-6 255.5,-12 255.5,-12 255.5,-24 255.5,-24 255.5,-30 249.5,-36 243.5,-36"/>
<text text-anchor="middle" x="228.5" y="-15.5" font-family="sans" font-size="10.00" fill="#000000">all</text>
</g>
<!-- 1 -->
<g id="node2" class="node">
<title>1</title>
<path fill="none" stroke="#5692d8" stroke-width="2" d="M208,-108C208,-108 137,-108 137,-108 131,-108 125,-102 125,-96 125,-96 125,-84 125,-84 125,-78 131,-72 137,-72 137,-72 208,-72 208,-72 214,-72 220,-78 220,-84 220,-84 220,-96 220,-96 220,-102 214,-108 208,-108"/>
<text text-anchor="middle" x="172.5" y="-87.5" font-family="sans" font-size="10.00" fill="#000000">unique_orfs_chr</text>
</g>
<!-- 1&#45;&gt;0 -->
<g id="edge2" class="edge">
<title>1&#45;&gt;0</title>
<path fill="none" stroke="#c0c0c0" stroke-width="2" d="M186.6312,-71.8314C193.0811,-63.5386 200.8445,-53.557 207.9252,-44.4533"/>
<polygon fill="#c0c0c0" stroke="#c0c0c0" stroke-width="2" points="210.8019,-46.4556 214.1786,-36.4133 205.2764,-42.158 210.8019,-46.4556"/>
</g>
<!-- 2 -->
<g id="node3" class="node">
<title>2</title>
<path fill="none" stroke="#56d873" stroke-width="2" d="M167,-324C167,-324 12,-324 12,-324 6,-324 0,-318 0,-312 0,-312 0,-300 0,-300 0,-294 6,-288 12,-288 12,-288 167,-288 167,-288 173,-288 179,-294 179,-300 179,-300 179,-312 179,-312 179,-318 173,-324 167,-324"/>
<text text-anchor="middle" x="89.5" y="-303.5" font-family="sans" font-size="10.00" fill="#000000">download_S288C_CHR_reference</text>
</g>
<!-- 2&#45;&gt;1 -->
<g id="edge5" class="edge">
<title>2&#45;&gt;1</title>
<path fill="none" stroke="#c0c0c0" stroke-width="2" d="M93.8384,-287.5193C101.3484,-256.9049 118.1383,-194.0776 140.5,-144 144.5462,-134.9388 149.7628,-125.4913 154.8052,-117.0788"/>
<polygon fill="#c0c0c0" stroke="#c0c0c0" stroke-width="2" points="157.873,-118.7723 160.1448,-108.4239 151.9155,-115.0968 157.873,-118.7723"/>
</g>
<!-- 3 -->
<g id="node4" class="node">
<title>3</title>
<path fill="none" stroke="#56d8a9" stroke-width="2" d="M211.5,-180C211.5,-180 167.5,-180 167.5,-180 161.5,-180 155.5,-174 155.5,-168 155.5,-168 155.5,-156 155.5,-156 155.5,-150 161.5,-144 167.5,-144 167.5,-144 211.5,-144 211.5,-144 217.5,-144 223.5,-150 223.5,-156 223.5,-156 223.5,-168 223.5,-168 223.5,-174 217.5,-180 211.5,-180"/>
<text text-anchor="middle" x="189.5" y="-159.5" font-family="sans" font-size="10.00" fill="#000000">blastp_chr</text>
</g>
<!-- 2&#45;&gt;3 -->
<g id="edge8" class="edge">
<title>2&#45;&gt;3</title>
<path fill="none" stroke="#c0c0c0" stroke-width="2" d="M102.1651,-287.7623C119.5972,-262.66 151.096,-217.3017 171.1201,-188.4671"/>
<polygon fill="#c0c0c0" stroke="#c0c0c0" stroke-width="2" points="174.1086,-190.2997 176.9378,-180.0896 168.359,-186.3069 174.1086,-190.2997"/>
</g>
<!-- 4 -->
<g id="node5" class="node">
<title>4</title>
<path fill="none" stroke="#d88d56" stroke-width="2" d="M277.5,-252C277.5,-252 205.5,-252 205.5,-252 199.5,-252 193.5,-246 193.5,-240 193.5,-240 193.5,-228 193.5,-228 193.5,-222 199.5,-216 205.5,-216 205.5,-216 277.5,-216 277.5,-216 283.5,-216 289.5,-222 289.5,-228 289.5,-228 289.5,-240 289.5,-240 289.5,-246 283.5,-252 277.5,-252"/>
<text text-anchor="middle" x="241.5" y="-231.5" font-family="sans" font-size="10.00" fill="#000000">make_blastp_db</text>
</g>
<!-- 2&#45;&gt;4 -->
<g id="edge11" class="edge">
<title>2&#45;&gt;4</title>
<path fill="none" stroke="#c0c0c0" stroke-width="2" d="M127.856,-287.8314C148.0044,-278.2874 172.8752,-266.5065 194.2083,-256.4013"/>
<polygon fill="#c0c0c0" stroke="#c0c0c0" stroke-width="2" points="195.8807,-259.482 203.4198,-252.038 192.8841,-253.1558 195.8807,-259.482"/>
</g>
<!-- 3&#45;&gt;1 -->
<g id="edge3" class="edge">
<title>3&#45;&gt;1</title>
<path fill="none" stroke="#c0c0c0" stroke-width="2" d="M185.2102,-143.8314C183.392,-136.131 181.2301,-126.9743 179.2095,-118.4166"/>
<polygon fill="#c0c0c0" stroke="#c0c0c0" stroke-width="2" points="182.5519,-117.3414 176.8476,-108.4133 175.7392,-118.95 182.5519,-117.3414"/>
</g>
<!-- 4&#45;&gt;3 -->
<g id="edge7" class="edge">
<title>4&#45;&gt;3</title>
<path fill="none" stroke="#c0c0c0" stroke-width="2" d="M228.3782,-215.8314C222.4501,-207.6232 215.3271,-197.7606 208.8067,-188.7323"/>
<polygon fill="#c0c0c0" stroke="#c0c0c0" stroke-width="2" points="211.4908,-186.4708 202.7985,-180.4133 205.816,-190.5693 211.4908,-186.4708"/>
</g>
<!-- 8 -->
<g id="node9" class="node">
<title>8</title>
<path fill="none" stroke="#56c9d8" stroke-width="2" d="M315.5,-180C315.5,-180 273.5,-180 273.5,-180 267.5,-180 261.5,-174 261.5,-168 261.5,-168 261.5,-156 261.5,-156 261.5,-150 267.5,-144 273.5,-144 273.5,-144 315.5,-144 315.5,-144 321.5,-144 327.5,-150 327.5,-156 327.5,-156 327.5,-168 327.5,-168 327.5,-174 321.5,-180 315.5,-180"/>
<text text-anchor="middle" x="294.5" y="-159.5" font-family="sans" font-size="10.00" fill="#000000">blastp_orf</text>
</g>
<!-- 4&#45;&gt;8 -->
<g id="edge17" class="edge">
<title>4&#45;&gt;8</title>
<path fill="none" stroke="#c0c0c0" stroke-width="2" d="M254.8741,-215.8314C260.9162,-207.6232 268.1763,-197.7606 274.8221,-188.7323"/>
<polygon fill="#c0c0c0" stroke="#c0c0c0" stroke-width="2" points="277.8363,-190.5415 280.9458,-180.4133 272.1989,-186.3918 277.8363,-190.5415"/>
</g>
<!-- 5 -->
<g id="node6" class="node">
<title>5</title>
<path fill="none" stroke="#d85656" stroke-width="2" d="M471,-324C471,-324 316,-324 316,-324 310,-324 304,-318 304,-312 304,-312 304,-300 304,-300 304,-294 310,-288 316,-288 316,-288 471,-288 471,-288 477,-288 483,-294 483,-300 483,-300 483,-312 483,-312 483,-318 477,-324 471,-324"/>
<text text-anchor="middle" x="393.5" y="-303.5" font-family="sans" font-size="10.00" fill="#000000">download_S288C_ORF_reference</text>
</g>
<!-- 5&#45;&gt;4 -->
<g id="edge9" class="edge">
<title>5&#45;&gt;4</title>
<path fill="none" stroke="#c0c0c0" stroke-width="2" d="M355.144,-287.8314C334.9956,-278.2874 310.1248,-266.5065 288.7917,-256.4013"/>
<polygon fill="#c0c0c0" stroke="#c0c0c0" stroke-width="2" points="290.1159,-253.1558 279.5802,-252.038 287.1193,-259.482 290.1159,-253.1558"/>
</g>
<!-- 7 -->
<g id="node8" class="node">
<title>7</title>
<path fill="none" stroke="#70d856" stroke-width="2" d="M346,-108C346,-108 277,-108 277,-108 271,-108 265,-102 265,-96 265,-96 265,-84 265,-84 265,-78 271,-72 277,-72 277,-72 346,-72 346,-72 352,-72 358,-78 358,-84 358,-84 358,-96 358,-96 358,-102 352,-108 346,-108"/>
<text text-anchor="middle" x="311.5" y="-87.5" font-family="sans" font-size="10.00" fill="#000000">unique_orfs_orf</text>
</g>
<!-- 5&#45;&gt;7 -->
<g id="edge12" class="edge">
<title>5&#45;&gt;7</title>
<path fill="none" stroke="#c0c0c0" stroke-width="2" d="M391.2985,-287.6913C387.0618,-256.7917 376.0313,-192.8831 352.5,-144 347.8284,-134.2954 341.2585,-124.6295 334.7441,-116.2145"/>
<polygon fill="#c0c0c0" stroke="#c0c0c0" stroke-width="2" points="337.3266,-113.8417 328.3205,-108.2613 331.881,-118.24 337.3266,-113.8417"/>
</g>
<!-- 5&#45;&gt;8 -->
<g id="edge15" class="edge">
<title>5&#45;&gt;8</title>
<path fill="none" stroke="#c0c0c0" stroke-width="2" d="M380.9616,-287.7623C363.7038,-262.66 332.5199,-217.3017 312.6961,-188.4671"/>
<polygon fill="#c0c0c0" stroke="#c0c0c0" stroke-width="2" points="315.4861,-186.3472 306.9366,-180.0896 309.7178,-190.3129 315.4861,-186.3472"/>
</g>
<!-- 6 -->
<g id="node7" class="node">
<title>6</title>
<path fill="none" stroke="#d8cb56" stroke-width="2" d="M258.5,-324C258.5,-324 224.5,-324 224.5,-324 218.5,-324 212.5,-318 212.5,-312 212.5,-312 212.5,-300 212.5,-300 212.5,-294 218.5,-288 224.5,-288 224.5,-288 258.5,-288 258.5,-288 264.5,-288 270.5,-294 270.5,-300 270.5,-300 270.5,-312 270.5,-312 270.5,-318 264.5,-324 258.5,-324"/>
<text text-anchor="middle" x="241.5" y="-303.5" font-family="sans" font-size="10.00" fill="#000000">orffinder</text>
</g>
<!-- 6&#45;&gt;1 -->
<g id="edge4" class="edge">
<title>6&#45;&gt;1</title>
<path fill="none" stroke="#c0c0c0" stroke-width="2" d="M213.3315,-287.8711C200.4283,-278.4344 185.7606,-265.9556 175.5,-252 155.0647,-224.2057 153.0644,-213.8679 146.5,-180 143.4555,-164.2923 142.9403,-159.599 146.5,-144 148.5856,-134.8606 152.4235,-125.466 156.5219,-117.1276"/>
<polygon fill="#c0c0c0" stroke="#c0c0c0" stroke-width="2" points="159.6417,-118.7147 161.1804,-108.2322 153.4405,-115.4672 159.6417,-118.7147"/>
</g>
<!-- 6&#45;&gt;3 -->
<g id="edge6" class="edge">
<title>6&#45;&gt;3</title>
<path fill="none" stroke="#c0c0c0" stroke-width="2" d="M214.0106,-287.7646C202.6152,-278.5451 190.6403,-266.2754 184.5,-252 176.0872,-232.4413 178.0288,-208.2512 181.6951,-189.877"/>
<polygon fill="#c0c0c0" stroke="#c0c0c0" stroke-width="2" points="185.1202,-190.599 183.9209,-180.0722 178.2939,-189.0493 185.1202,-190.599"/>
</g>
<!-- 6&#45;&gt;4 -->
<g id="edge10" class="edge">
<title>6&#45;&gt;4</title>
<path fill="none" stroke="#c0c0c0" stroke-width="2" d="M241.5,-287.8314C241.5,-280.131 241.5,-270.9743 241.5,-262.4166"/>
<polygon fill="#c0c0c0" stroke="#c0c0c0" stroke-width="2" points="245.0001,-262.4132 241.5,-252.4133 238.0001,-262.4133 245.0001,-262.4132"/>
</g>
<!-- 6&#45;&gt;7 -->
<g id="edge14" class="edge">
<title>6&#45;&gt;7</title>
<path fill="none" stroke="#c0c0c0" stroke-width="2" d="M270.8271,-290.8328C286.1665,-281.5268 304.0772,-268.2709 315.5,-252 343.5965,-211.9788 347.018,-191.7544 336.5,-144 334.5195,-135.0081 330.8879,-125.7321 326.9949,-117.4596"/>
<polygon fill="#c0c0c0" stroke="#c0c0c0" stroke-width="2" points="330.0038,-115.6522 322.388,-108.2867 323.7484,-118.7939 330.0038,-115.6522"/>
</g>
<!-- 6&#45;&gt;8 -->
<g id="edge16" class="edge">
<title>6&#45;&gt;8</title>
<path fill="none" stroke="#c0c0c0" stroke-width="2" d="M268.9894,-287.7646C280.3848,-278.5451 292.3597,-266.2754 298.5,-252 306.9082,-232.4521 305.2493,-208.2614 301.8489,-189.8842"/>
<polygon fill="#c0c0c0" stroke="#c0c0c0" stroke-width="2" points="305.268,-189.1349 299.7714,-180.0775 298.4199,-190.5857 305.268,-189.1349"/>
</g>
<!-- 7&#45;&gt;0 -->
<g id="edge1" class="edge">
<title>7&#45;&gt;0</title>
<path fill="none" stroke="#c0c0c0" stroke-width="2" d="M290.5556,-71.8314C280.4309,-63.0485 268.1223,-52.3712 257.1452,-42.8489"/>
<polygon fill="#c0c0c0" stroke="#c0c0c0" stroke-width="2" points="259.2851,-40.0718 249.4377,-36.1628 254.6981,-45.3595 259.2851,-40.0718"/>
</g>
<!-- 8&#45;&gt;7 -->
<g id="edge13" class="edge">
<title>8&#45;&gt;7</title>
<path fill="none" stroke="#c0c0c0" stroke-width="2" d="M298.7898,-143.8314C300.608,-136.131 302.7699,-126.9743 304.7905,-118.4166"/>
<polygon fill="#c0c0c0" stroke="#c0c0c0" stroke-width="2" points="308.2608,-118.95 307.1524,-108.4133 301.4481,-117.3414 308.2608,-118.95"/>
</g>
</g>
</svg>
